<svg xmlns="http://www.w3.org/2000/svg" width="512" height="512" viewBox="0 0 512 512">
<g>
<path d="M 236.50 511.41 C236.05,511.34 235.19,511.23 234.04,511.07 C237.56,511.44 240.14,511.64 240.50,511.57 C242.62,511.12 245.16,497.39 245.69,483.50 C246.60,459.84 244.66,452.06 227.36,410.00 C214.90,379.71 209.01,363.70 205.39,350.35 C202.96,341.37 202.31,340.10 197.98,335.92 C195.37,333.41 189.47,329.39 184.87,327.00 C179.78,324.36 174.05,320.31 170.25,316.67 L 164.00 310.68 L 164.01 314.09 C164.02,319.91 165.92,335.00 168.08,346.45 C171.47,364.50 175.78,376.21 192.00,411.50 C200.24,429.45 206.76,447.21 210.73,462.50 C213.00,471.26 213.34,474.73 213.50,490.50 C213.62,503.18 213.86,507.44 214.67,508.49 C182.23,503.35 149.70,490.35 120.67,471.03 C121.76,471.63 122.47,471.87 122.67,471.66 C123.47,470.86 121.13,424.70 119.42,407.50 C116.57,378.83 112.84,357.57 105.21,326.50 L 100.55 307.50 L 100.52 288.50 C100.51,273.96 100.92,267.56 102.28,261.24 C106.58,241.31 114.80,222.06 126.71,204.00 C133.47,193.76 145.82,178.32 151.76,172.70 L 154.72 169.90 L 155.91 172.79 C157.75,177.23 166.83,185.51 173.50,188.82 C176.80,190.46 186.25,193.89 194.50,196.45 C221.78,204.90 237.22,212.30 245.36,220.84 C250.06,225.77 248.04,226.24 240.00,222.07 C230.92,217.36 222.27,215.00 214.14,215.00 C207.01,215.00 206.91,215.12 203.93,226.77 C196.01,257.69 205.09,282.35 229.03,294.89 C246.31,303.95 255.16,311.87 263.52,325.75 C266.08,330.01 270.16,336.04 272.58,339.15 L 276.97 344.80 L 270.57 350.79 C262.53,358.31 251.46,365.61 240.50,370.62 C235.84,372.75 232.03,374.73 232.03,375.00 C232.04,375.27 234.85,377.60 238.27,380.17 C245.77,385.79 257.66,392.30 267.37,396.09 C272.87,398.23 274.44,399.28 274.26,400.68 C274.13,401.68 272.02,414.65 269.57,429.50 C265.61,453.59 257.09,509.20 257.00,511.55 C247.55,511.80 239.25,511.81 236.50,511.41 ZM 134.25 54.52 C142.61,49.63 150.53,45.62 157.69,42.66 C161.99,40.89 167.52,37.95 170.00,36.13 C172.48,34.31 175.85,32.13 177.50,31.28 C179.15,30.43 184.77,25.36 190.00,20.00 C200.84,8.88 208.98,4.14 222.00,1.38 C243.15,-3.09 269.85,4.09 285.95,18.59 C291.78,23.84 293.13,24.73 298.26,25.69 C298.01,25.65 297.75,25.61 297.50,25.58 L 293.50 24.99 L 297.17 28.11 C299.19,29.82 304.36,33.31 308.67,35.86 C315.93,40.16 316.52,40.76 316.80,44.11 C317.08,47.45 316.74,47.96 312.30,50.81 C294.57,62.19 280.05,64.82 253.46,61.51 C236.94,59.45 231.85,59.54 228.75,61.98 C224.18,65.58 221.07,76.65 218.55,98.29 C217.09,110.76 216.17,113.00 212.45,113.00 C208.68,113.00 207.00,110.43 207.00,104.65 C207.00,98.80 205.36,95.76 200.99,93.49 C196.22,91.03 191.28,91.57 187.92,94.92 C184.34,98.51 184.29,100.61 187.58,110.07 C192.26,123.57 190.98,132.67 183.11,142.00 L 180.15 145.50 L 178.56 141.50 C177.68,139.30 172.24,128.05 166.47,116.50 C154.83,93.22 152.00,84.51 152.00,72.02 C152.00,60.12 155.36,50.81 162.41,43.13 C165.46,39.82 165.46,39.78 163.00,40.47 C161.62,40.85 154.65,44.03 147.50,47.53 C143.00,49.73 138.58,52.06 134.25,54.52 ZM 436.53 272.99 C426.32,275.60 411.27,275.62 401.50,273.04 C376.41,266.39 357.42,248.75 349.26,224.50 C346.82,217.27 346.56,215.11 346.57,202.00 C346.57,188.76 346.82,186.81 349.35,179.50 C350.87,175.10 353.91,168.47 356.09,164.77 C360.23,157.76 371.63,145.00 373.76,145.00 C374.43,145.00 375.61,146.53 376.39,148.40 C377.18,150.27 379.21,152.83 380.91,154.09 C382.61,155.35 384.00,156.80 384.00,157.32 C384.00,157.84 381.56,160.73 378.57,163.74 C361.05,181.40 358.09,210.60 371.67,231.83 C386.96,255.73 417.43,264.39 442.65,252.00 C447.14,249.80 451.07,248.00 451.39,248.00 C451.71,248.00 452.67,249.69 453.51,251.75 C454.36,253.81 456.48,256.69 458.24,258.15 C460.89,260.35 461.21,261.04 460.17,262.30 C458.02,264.88 444.74,270.89 436.53,272.99 ZM 12.38 239.63 C18.13,190.21 38.05,144.94 69.34,108.35 C38.34,144.84 18.11,190.37 12.38,239.63 ZM 309.49 27.86 C331.41,32.65 352.83,40.75 372.88,51.69 C369.19,49.70 365.41,47.78 361.55,45.93 C346.11,38.51 326.21,31.68 309.49,27.86 ZM 47.80 396.14 C30.45,368.27 18.70,336.89 13.44,303.50 C18.62,336.36 30.56,368.19 47.80,396.14 ZM 432.61 97.26 C445.52,110.64 456.12,124.72 468.00,144.08 C457.08,126.29 445.42,110.81 432.61,97.26 ZM 106.83 461.14 C105.55,460.15 104.27,459.15 103.00,458.14 C98.57,454.60 94.28,450.93 90.13,447.13 C95.43,451.88 101.43,456.89 106.83,461.14 ZM 473.11 380.41 C436.65,449.93 369.48,497.55 291.00,509.50 C289.47,509.73 287.28,509.96 284.65,510.18 C365.19,500.37 435.36,452.38 473.11,380.41 Z" fill="rgba(48,74,147,1)"/>
<path d="M 495.54 215.80 C495.23,214.36 494.90,212.93 494.55,211.50 L 492.37 202.50 L 491.63 208.50 C488.99,229.84 479.16,247.69 463.28,259.95 C462.29,260.71 461.29,261.45 460.28,262.15 C461.18,260.99 460.78,260.26 458.24,258.15 C456.48,256.69 454.36,253.81 453.51,251.75 C452.67,249.69 451.71,248.00 451.39,248.00 C451.07,248.00 447.14,249.80 442.65,252.00 C417.43,264.39 386.96,255.73 371.67,231.83 C358.09,210.60 361.05,181.40 378.57,163.74 C381.56,160.73 384.00,157.84 384.00,157.32 C384.00,156.80 382.61,155.35 380.91,154.09 C379.21,152.83 377.18,150.27 376.39,148.40 C375.61,146.53 374.43,145.00 373.76,145.00 C373.72,145.00 373.67,145.00 373.63,145.01 C383.15,137.37 393.83,132.60 406.43,130.31 C426.17,126.73 448.23,132.21 463.51,144.49 C466.81,147.14 470.10,149.77 470.83,150.34 C472.21,151.41 468.44,144.71 463.19,136.46 C464.81,138.95 466.41,141.49 468.00,144.08 C471.58,149.91 476.68,157.93 479.35,161.91 C485.20,170.66 489.39,181.72 490.94,192.50 C491.57,196.90 493.17,205.23 494.49,211.00 C494.86,212.60 495.21,214.20 495.54,215.80 ZM 247.74 223.91 C248.44,224.89 249.06,225.89 249.61,226.91 C250.98,229.43 254.56,234.65 257.56,238.50 C261.11,243.04 264.07,248.31 266.01,253.50 C271.09,267.13 271.67,267.83 283.65,275.00 C294.07,281.24 305.39,289.31 307.68,292.15 C308.50,293.16 307.85,295.62 305.06,302.04 C297.98,318.28 288.35,332.71 276.83,344.62 L 272.58 339.15 C270.16,336.04 266.08,330.01 263.52,325.75 C255.16,311.87 246.31,303.95 229.03,294.89 C205.09,282.35 196.01,257.69 203.93,226.77 C206.91,215.12 207.01,215.00 214.14,215.00 C222.27,215.00 230.92,217.36 240.00,222.07 C245.81,225.08 248.48,225.68 247.74,223.91 ZM 448.00 244.06 C449.92,244.45 451.85,244.82 452.27,244.88 C454.01,245.14 461.77,236.77 465.29,230.84 C482.10,202.53 471.97,167.40 442.88,153.11 C427.11,145.36 410.70,145.16 395.40,152.51 L 388.00 156.08 L 388.00 161.09 C388.00,173.12 392.01,179.44 401.91,183.05 L 407.62 185.13 L 404.39 188.55 C395.21,198.28 398.19,213.92 410.31,219.57 C416.64,222.51 422.30,222.65 427.50,220.00 C429.66,218.90 431.55,218.00 431.71,218.00 C431.87,218.00 432.00,220.49 432.00,223.53 C432.00,234.85 437.53,241.95 448.00,244.06 ZM 429.87 94.41 C410.29,74.63 387.33,58.31 361.55,45.93 C387.96,58.61 410.26,74.34 429.87,94.41 ZM 473.33 380.00 C489.03,349.93 498.21,315.72 500.37,281.46 C498.35,315.84 489.22,349.55 473.33,380.00 ZM 398.05 272.04 C390.88,270.02 384.30,266.89 378.12,262.56 C384.13,266.58 390.82,269.78 398.05,272.04 ZM 435.62 273.22 C430.51,274.50 427.20,274.95 421.59,274.92 C426.56,274.76 431.45,274.19 435.62,273.22 ZM 194.50 196.45 C216.65,203.31 230.82,209.31 239.71,215.94 C230.72,209.36 216.44,203.24 194.50,196.45 ZM 451.22 267.55 C447.25,269.53 443.07,271.14 438.53,272.44 C442.48,271.25 447.18,269.41 451.22,267.55 ZM 349.35 179.50 C350.63,175.80 352.13,172.29 353.86,168.95 C352.15,172.41 350.39,176.48 349.35,179.50 ZM 356.09 239.37 C353.31,234.84 351.11,230.00 349.26,224.50 C351.04,229.79 353.33,234.76 356.09,239.37 ZM 359.89 159.26 C361.18,157.51 362.55,155.82 364.00,154.18 C362.58,155.84 361.17,157.58 359.89,159.26 Z" fill="rgba(78,112,181,1)"/>
<path d="M 257.00 511.58 C257.00,509.78 265.59,453.72 269.57,429.50 C272.02,414.65 274.13,401.68 274.26,400.68 C274.44,399.28 272.87,398.23 267.37,396.09 C257.69,392.31 245.84,385.83 238.35,380.23 C242.99,383.46 249.30,387.41 254.03,389.91 C263.22,394.74 277.72,400.11 285.60,401.59 C287.71,401.98 291.90,403.88 294.92,405.81 C303.59,411.36 317.96,417.79 326.58,419.97 C332.86,421.57 336.26,421.86 343.00,421.37 C347.67,421.03 355.10,420.66 359.50,420.54 C371.55,420.23 376.51,416.60 378.80,406.39 C379.30,404.17 381.52,399.23 383.74,395.42 C402.61,362.97 419.58,314.79 424.44,279.88 L 425.08 275.27 L 414.79 274.79 C407.69,274.46 403.54,273.81 397.97,272.02 C403.61,273.61 409.61,274.52 416.07,274.78 C425.55,275.15 429.12,274.86 435.83,273.16 C446.38,270.50 454.99,266.35 463.28,259.95 C479.16,247.69 488.99,229.84 491.63,208.50 L 492.37 202.50 L 494.55 211.50 C507.82,266.27 499.91,329.09 473.33,380.00 C433.17,456.91 356.04,506.53 268.75,511.61 C262.29,511.99 257.00,511.97 257.00,511.58 ZM 244.92 220.41 C246.25,221.83 247.54,222.80 247.77,222.56 C248.01,222.32 247.66,218.93 247.00,215.02 C246.14,209.90 244.84,206.48 242.36,202.79 C238.41,196.92 237.30,191.29 238.93,185.28 C241.12,177.14 246.98,176.14 264.00,181.00 C269.77,182.65 275.47,184.00 276.67,184.00 C279.98,184.00 284.77,178.52 286.48,172.76 C287.47,169.42 288.03,163.09 288.10,154.57 C288.23,137.89 288.49,137.00 293.75,135.25 C296.06,134.48 299.14,132.44 300.59,130.71 C304.63,125.91 303.65,118.82 297.23,106.22 C290.78,93.56 289.56,88.21 290.35,76.10 C290.70,70.82 291.27,65.20 291.63,63.61 C292.26,60.83 292.17,60.74 289.39,61.37 C286.84,61.94 283.41,62.34 279.51,62.55 C291.62,61.53 301.34,57.84 312.30,50.81 C316.74,47.96 317.08,47.45 316.80,44.11 C316.52,40.76 315.93,40.16 308.67,35.86 C304.36,33.31 299.19,29.82 297.17,28.11 L 293.50 24.99 L 297.50 25.58 C308.99,27.25 323.62,31.17 337.70,36.14 C337.30,36.80 336.98,39.74 336.96,43.25 C336.89,53.70 335.77,56.43 326.98,67.50 C312.79,85.37 317.58,116.59 336.00,126.30 C340.71,128.77 342.30,129.12 347.08,128.71 C350.15,128.44 355.77,126.88 359.58,125.24 C363.39,123.60 371.81,119.94 378.30,117.12 C384.80,114.29 393.35,111.05 397.30,109.92 C406.78,107.22 422.82,106.35 433.64,107.96 C438.30,108.66 442.38,108.95 442.72,108.61 C442.75,108.58 442.73,108.51 442.66,108.39 C448.47,115.25 453.91,122.46 458.96,130.00 C466.21,140.80 472.56,151.69 470.83,150.34 C470.10,149.77 466.81,147.14 463.51,144.49 C448.23,132.21 426.17,126.73 406.43,130.31 C391.04,133.10 378.51,139.60 367.46,150.52 C359.22,158.67 353.25,168.21 349.35,179.50 C346.82,186.81 346.57,188.76 346.57,202.00 C346.56,215.11 346.82,217.27 349.26,224.50 C353.05,235.77 358.31,244.25 367.00,253.07 C374.44,260.63 382.35,266.10 391.13,269.67 L 387.11 268.28 L 378.33 276.39 C373.51,280.85 364.30,289.71 357.88,296.08 C347.39,306.48 345.76,308.59 341.85,316.80 C339.46,321.82 337.24,325.95 336.92,325.97 C336.60,325.99 333.94,322.32 331.01,317.82 C325.52,309.39 311.65,294.00 309.55,294.00 C309.00,294.00 307.51,296.49 305.99,299.85 C307.99,295.04 308.40,293.04 307.68,292.15 C305.39,289.31 294.07,281.24 283.65,275.00 C271.67,267.83 271.09,267.13 266.01,253.50 C264.07,248.31 261.11,243.04 257.56,238.50 C254.56,234.65 250.98,229.43 249.61,226.91 C246.93,221.95 242.62,217.57 235.96,213.38 C239.73,215.71 242.70,218.04 244.92,220.41 ZM 158.73 176.98 C157.40,175.42 156.40,173.97 155.91,172.79 L 154.72 169.90 L 151.76 172.70 C145.82,178.32 133.47,193.76 126.71,204.00 C114.80,222.06 106.58,241.31 102.28,261.24 C100.92,267.56 100.51,273.96 100.52,288.50 L 100.55 307.50 L 105.21 326.50 C112.84,357.57 116.57,378.83 119.42,407.50 C121.13,424.70 123.47,470.86 122.67,471.66 C121.41,472.93 101.19,457.35 87.63,444.86 L 88.94 441.88 C90.04,439.41 90.43,434.88 90.39,425.00 C90.34,408.73 87.56,394.12 77.64,358.00 C70.24,331.08 68.55,323.35 67.06,309.79 C63.39,276.21 69.65,240.68 85.99,202.41 C88.79,195.86 95.80,181.50 101.57,170.50 C123.65,128.41 124.31,126.90 124.78,117.71 C125.11,111.10 124.79,108.42 123.10,103.96 C120.38,96.74 113.05,87.81 105.37,82.35 L 99.74 78.34 C114.25,66.34 130.25,55.96 147.50,47.53 C154.65,44.03 161.62,40.85 163.00,40.47 C165.46,39.78 165.46,39.82 162.41,43.13 C155.36,50.81 152.00,60.12 152.00,72.02 C152.00,84.51 154.83,93.22 166.47,116.50 C172.24,128.05 177.68,139.30 178.56,141.50 L 180.15 145.50 L 182.95 142.19 C182.19,143.19 181.37,144.22 180.49,145.29 C175.94,150.81 174.43,152.00 172.00,152.00 C167.64,152.00 155.00,164.02 155.00,168.17 C155.00,171.10 156.06,173.72 158.73,176.98 ZM 406.77 73.90 C417.88,82.55 428.18,92.14 437.60,102.58 C435.24,100.09 432.23,97.01 428.92,93.74 C421.39,86.30 414.13,79.77 406.77,73.90 ZM 27.83 177.78 C32.64,165.53 38.40,153.73 45.04,142.48 C41.86,147.93 38.83,153.59 35.94,159.50 C32.96,165.58 30.26,171.66 27.83,177.78 ZM 189.78 129.17 C190.93,123.63 190.16,117.52 187.58,110.07 C190.26,117.83 191.12,123.58 189.78,129.17 ZM 77.71 435.01 L 80.81 438.28 C72.70,430.10 65.17,421.21 58.27,411.75 C64.25,419.91 70.74,427.68 77.71,435.01 ZM 179.16 191.18 C176.70,190.24 174.70,189.41 173.50,188.82 C172.38,188.27 171.20,187.57 170.00,186.78 C172.53,188.30 175.49,189.72 179.16,191.18 ZM 72.66 104.52 C78.00,98.49 83.63,92.73 89.55,87.25 L 87.55 89.16 C82.25,94.22 77.31,99.32 72.66,104.52 ZM 19.01 329.54 C16.69,320.97 14.82,312.27 13.44,303.50 C10.97,287.83 10.45,256.24 12.38,239.63 C10.44,256.29 10.98,287.91 13.46,303.50 C14.86,312.31 16.72,321.01 19.01,329.54 ZM 235.58 60.07 C239.31,59.94 244.83,60.43 253.46,61.51 C254.83,61.68 256.17,61.83 257.47,61.97 C256.40,61.87 255.34,61.75 254.29,61.62 C245.06,60.49 239.36,59.96 235.58,60.07 Z" fill="rgba(79,171,246,1)"/>
<path d="M 448.00 244.06 C437.53,241.95 432.00,234.85 432.00,223.53 C432.00,220.49 431.87,218.00 431.71,218.00 C431.55,218.00 429.66,218.90 427.50,220.00 C426.90,220.31 426.29,220.58 425.67,220.81 C428.31,219.73 430.80,217.87 433.18,215.22 C436.53,211.52 438.99,205.91 438.99,202.00 C438.99,198.15 436.55,192.51 433.37,188.99 C424.61,179.29 410.07,180.20 402.50,190.93 C402.26,191.26 402.04,191.58 401.84,191.88 C402.55,190.72 403.40,189.60 404.39,188.55 L 407.62 185.13 L 401.91 183.05 C392.01,179.44 388.00,173.12 388.00,161.09 L 388.00 156.08 L 395.40 152.51 C410.70,145.16 427.11,145.36 442.88,153.11 C471.97,167.40 482.10,202.53 465.29,230.84 C461.77,236.77 454.01,245.14 452.27,244.88 C451.85,244.82 449.92,244.45 448.00,244.06 ZM 400.66 209.75 C398.82,205.57 398.49,200.80 399.85,196.33 C399.57,197.73 399.50,199.42 399.50,201.91 C399.50,204.91 399.87,207.51 400.66,209.75 Z" fill="rgba(96,136,203,1)"/>
<path d="M 77.71 435.01 C43.88,399.44 21.41,353.43 13.46,303.50 C10.98,287.91 10.44,256.29 12.38,239.63 C15.69,211.16 23.30,185.28 35.94,159.50 C49.31,132.22 65.33,110.38 87.55,89.16 L 99.25 77.99 L 105.37 82.35 C113.05,87.81 120.38,96.74 123.10,103.96 C124.79,108.42 125.11,111.10 124.78,117.71 C124.31,126.90 123.65,128.41 101.57,170.50 C95.80,181.50 88.79,195.86 85.99,202.41 C69.65,240.68 63.39,276.21 67.06,309.79 C68.55,323.35 70.24,331.08 77.64,358.00 C87.56,394.12 90.34,408.73 90.39,425.00 C90.43,434.88 90.04,439.41 88.94,441.88 L 87.45 445.26 ZM 336.00 126.30 C317.58,116.59 312.79,85.37 326.98,67.50 C335.77,56.43 336.89,53.70 336.96,43.25 C336.98,39.26 337.39,36.00 337.87,36.00 C339.70,36.00 356.14,43.06 366.61,48.33 C390.16,60.20 408.59,73.63 428.92,93.74 C436.84,101.58 443.06,108.28 442.72,108.61 C442.38,108.95 438.30,108.66 433.64,107.96 C422.82,106.35 406.78,107.22 397.30,109.92 C393.35,111.05 384.80,114.29 378.30,117.12 C371.81,119.94 363.39,123.60 359.58,125.24 C355.77,126.88 350.15,128.44 347.08,128.71 C342.30,129.12 340.71,128.77 336.00,126.30 Z" fill="rgba(114,194,248,1)"/>
<path d="M 228.98 413.94 C225.23,405.10 221.93,397.87 221.16,397.25 C219.01,395.51 208.69,395.69 204.25,397.54 C199.31,399.60 197.22,401.64 194.47,407.06 L 192.16 411.61 L 195.63 419.56 C196.86,422.37 198.16,425.54 199.47,428.88 C197.18,423.16 194.68,417.34 192.00,411.50 C175.78,376.21 171.47,364.50 168.08,346.45 C165.92,335.00 164.02,319.91 164.01,314.09 L 164.00 310.68 L 170.25 316.67 C174.05,320.31 179.78,324.36 184.87,327.00 C189.47,329.39 195.37,333.41 197.98,335.92 C202.31,340.10 202.96,341.37 205.39,350.35 C209.01,363.70 214.90,379.71 227.36,410.00 C227.91,411.35 228.45,412.66 228.98,413.94 ZM 178.12 148.08 L 174.05 152.92 L 177.13 158.94 C181.25,166.99 185.87,170.92 198.99,177.49 C205.04,180.53 210.00,183.20 210.00,183.43 C210.00,183.66 208.65,185.20 207.00,186.85 C203.90,189.95 203.29,192.99 204.91,197.26 C205.61,199.12 208.39,200.67 217.51,204.31 C220.72,205.59 223.88,207.02 226.88,208.51 C218.58,204.57 207.88,200.59 194.50,196.45 C176.33,190.82 169.03,187.31 162.67,181.17 C157.06,175.74 155.00,172.26 155.00,168.17 C155.00,164.02 167.64,152.00 172.00,152.00 C173.95,152.00 175.31,151.23 178.12,148.08 ZM 245.69 483.50 C246.11,472.53 245.50,463.58 243.62,454.74 C245.90,464.38 246.13,472.10 245.69,483.50 ZM 209.77 458.94 C210.11,460.13 210.42,461.27 210.69,462.33 C212.71,470.16 213.23,473.74 213.43,485.13 C213.23,473.78 212.72,470.17 210.73,462.50 C210.42,461.33 210.10,460.14 209.77,458.94 Z" fill="rgba(159,210,50,1)"/>
<path d="M 243.14 383.43 C237.21,379.60 232.06,375.81 232.03,375.00 C232.03,374.73 235.84,372.75 240.50,370.62 C256.84,363.15 272.09,350.99 284.39,336.11 L 278.09 343.97 L 281.33 346.44 C283.10,347.79 285.59,349.28 286.86,349.75 C289.03,350.55 288.73,351.00 281.45,357.92 C272.86,366.07 258.98,375.48 249.34,379.68 C245.85,381.20 243.00,382.77 243.00,383.17 C243.00,383.24 243.05,383.33 243.14,383.43 ZM 284.14 401.28 C281.15,400.62 277.44,399.51 273.51,398.15 C275.99,398.96 278.46,399.70 280.50,400.22 C281.70,400.53 282.92,400.89 284.14,401.28 ZM 305.78 300.32 C307.37,296.73 308.98,294.00 309.55,294.00 C309.56,294.00 309.56,294.00 309.57,294.00 C309.02,294.05 307.43,296.73 305.78,300.32 ZM 302.97 410.40 C300.79,409.27 298.72,408.13 296.84,407.00 C298.80,408.16 300.86,409.30 302.97,410.40 ZM 326.58 419.97 C326.06,419.84 325.52,419.70 324.97,419.54 C325.54,419.70 326.10,419.85 326.64,419.99 C327.21,420.13 327.75,420.26 328.27,420.39 C327.73,420.26 327.17,420.12 326.58,419.97 Z" fill="rgba(164,181,236,1)"/>
<path d="M 228.00 510.40 C221.68,509.65 215.86,508.91 215.09,508.76 C213.94,508.55 213.64,505.12 213.50,490.50 C213.34,474.68 213.00,471.27 210.69,462.33 C207.81,451.17 201.05,431.96 195.63,419.56 L 192.16 411.61 L 194.47 407.06 C197.22,401.64 199.31,399.60 204.25,397.54 C208.69,395.69 219.01,395.51 221.16,397.25 C222.80,398.58 236.16,430.39 240.41,443.10 C244.78,456.17 246.29,467.75 245.69,483.50 C245.16,497.39 242.62,511.12 240.50,511.57 C239.95,511.68 234.32,511.16 228.00,510.40 ZM 244.92 220.41 C240.34,215.53 229.19,208.98 217.51,204.31 C208.39,200.67 205.61,199.12 204.91,197.26 C203.29,192.99 203.90,189.95 207.00,186.85 C208.65,185.20 210.00,183.66 210.00,183.43 C210.00,183.42 209.99,183.41 209.97,183.39 C214.73,185.91 219.83,188.64 224.00,190.90 C231.98,195.24 238.63,198.83 238.78,198.89 C238.94,198.95 238.78,196.85 238.44,194.22 C238.33,193.42 238.27,192.61 238.25,191.79 C238.50,195.47 239.86,199.08 242.36,202.79 C244.84,206.48 246.14,209.90 247.00,215.02 C247.66,218.93 248.01,222.32 247.77,222.56 C247.54,222.80 246.25,221.83 244.92,220.41 ZM 240.30 181.89 C240.86,180.86 241.52,180.05 242.25,179.54 C243.34,178.78 244.80,178.31 246.69,178.15 C243.63,178.49 241.63,179.71 240.30,181.89 ZM 182.43 166.65 C180.31,164.42 178.68,161.97 177.13,158.94 C178.68,161.97 180.30,164.41 182.43,166.65 Z" fill="rgba(186,233,73,1)"/>
<path d="M 410.31 219.57 C402.72,216.03 399.50,210.77 399.50,201.91 C399.50,196.03 399.88,194.63 402.50,190.93 C410.07,180.20 424.61,179.29 433.37,188.99 C436.55,192.51 438.99,198.15 438.99,202.00 C438.99,205.91 436.53,211.52 433.18,215.22 C426.68,222.43 419.42,223.81 410.31,219.57 ZM 318.46 302.15 C318.30,302.05 318.16,302.00 318.06,302.00 C317.63,302.00 316.47,304.14 315.49,306.75 C309.58,322.48 299.80,337.84 288.04,350.74 C288.06,350.26 287.61,350.03 286.86,349.75 C285.59,349.28 283.10,347.79 281.33,346.44 L 278.09 343.97 L 284.80 335.60 C292.89,325.49 300.09,313.58 304.88,302.34 C306.84,297.75 308.95,294.00 309.59,294.00 C310.58,294.00 314.28,297.54 318.46,302.15 ZM 270.31 367.10 C263.52,372.30 256.44,376.59 249.34,379.68 C255.44,377.03 263.23,372.29 270.31,367.10 ZM 336.92 325.97 C336.60,325.99 334.05,322.51 331.26,318.25 C330.66,317.34 330.06,316.44 329.44,315.54 C330.02,316.34 330.54,317.11 331.01,317.82 C333.94,322.32 336.60,325.99 336.92,325.97 Z" fill="rgba(216,225,253,1)"/>
<path d="M 239.16 184.72 C240.04,180.92 241.92,178.97 245.05,178.34 C246.67,178.02 248.00,177.36 248.00,176.89 C248.00,176.41 244.86,173.74 241.02,170.95 C224.27,158.76 214.05,140.73 212.32,120.30 C211.98,116.28 211.35,113.00 210.92,113.00 C209.79,113.00 208.82,112.14 208.12,110.68 C209.00,112.26 210.42,113.00 212.45,113.00 C216.17,113.00 217.09,110.76 218.55,98.29 C221.07,76.65 224.18,65.58 228.75,61.98 C231.89,59.51 236.59,59.45 254.29,61.62 C266.94,63.17 281.88,63.06 289.39,61.37 C292.17,60.74 292.26,60.83 291.63,63.61 C291.27,65.20 290.70,70.82 290.35,76.10 C289.56,88.21 290.78,93.56 297.23,106.22 C303.65,118.82 304.63,125.91 300.59,130.71 C299.14,132.44 296.06,134.48 293.75,135.25 C288.49,137.00 288.23,137.89 288.10,154.57 C288.03,163.09 287.47,169.42 286.48,172.76 C284.77,178.52 279.98,184.00 276.67,184.00 C275.47,184.00 269.77,182.65 264.00,181.00 C252.37,177.67 245.56,177.22 242.25,179.54 C240.94,180.46 239.86,182.36 239.16,184.72 ZM 326.64 419.99 C318.07,417.81 305.42,412.22 295.70,406.31 C292.95,404.64 289.00,402.91 284.95,401.55 C286.65,401.89 287.64,401.85 288.21,401.34 C289.11,400.56 289.01,398.64 289.02,395.25 C289.06,383.42 294.96,374.99 307.30,369.10 C314.91,365.46 317.12,365.34 328.13,367.97 C339.92,370.79 347.14,371.44 351.31,370.06 C366.03,365.20 401.06,305.50 404.47,279.46 L 405.13 274.42 L 399.07 272.36 C404.11,273.89 408.16,274.48 414.79,274.79 L 425.08 275.27 L 424.44 279.88 C419.58,314.79 402.61,362.97 383.74,395.42 C381.52,399.23 379.30,404.17 378.80,406.39 C376.51,416.60 371.55,420.23 359.50,420.54 C355.10,420.66 347.67,421.03 343.00,421.37 C336.28,421.85 332.86,421.57 326.64,419.99 ZM 271.27 397.41 C268.51,396.46 265.87,395.47 263.94,394.64 C258.73,392.40 252.44,389.21 248.12,386.74 C254.00,389.96 264.05,394.62 271.27,397.41 ZM 243.58 383.84 C243.20,383.54 243.00,383.31 243.00,383.17 C243.00,382.77 245.82,381.22 249.29,379.71 C245.82,381.22 243.13,382.92 243.31,383.48 C243.34,383.58 243.43,383.70 243.58,383.84 ZM 238.55 198.77 C238.56,198.37 238.56,197.02 238.56,195.17 C238.82,197.34 238.92,198.94 238.78,198.89 C238.77,198.88 238.69,198.84 238.55,198.77 ZM 378.33 276.39 L 387.11 268.28 L 390.94 269.61 L 387.09 268.30 L 378.33 276.39 Z" fill="rgba(248,185,142,1)"/>
<path d="M 276.50 399.23 C267.51,396.61 243.92,385.41 243.31,383.48 C243.13,382.91 245.84,381.21 249.33,379.69 C276.78,367.73 303.76,337.98 315.49,306.75 C316.47,304.14 317.63,302.00 318.06,302.00 C319.36,302.00 325.86,310.00 331.26,318.25 C334.05,322.51 336.60,325.99 336.92,325.97 C337.24,325.95 339.46,321.82 341.85,316.80 C345.76,308.59 347.39,306.48 357.88,296.08 C364.30,289.71 373.50,280.85 378.32,276.40 L 387.09 268.30 L 396.11 271.36 L 405.13 274.42 L 404.47 279.46 C401.06,305.50 366.03,365.20 351.31,370.06 C347.14,371.44 339.92,370.79 328.13,367.97 C317.12,365.34 314.91,365.46 307.30,369.10 C294.96,374.99 289.06,383.42 289.02,395.25 C289.00,403.21 289.56,403.03 276.50,399.23 ZM 224.00 190.90 C216.02,186.57 204.66,180.54 198.74,177.50 C185.80,170.85 181.21,166.91 177.13,158.94 L 174.05 152.92 L 179.99 145.85 C191.16,132.55 192.76,125.01 187.58,110.07 C184.29,100.61 184.34,98.51 187.92,94.92 C191.28,91.57 196.22,91.03 200.99,93.49 C205.36,95.76 207.00,98.80 207.00,104.65 C207.00,109.51 208.64,113.00 210.92,113.00 C211.35,113.00 211.98,116.28 212.32,120.30 C214.05,140.73 224.27,158.76 241.02,170.95 C244.86,173.74 248.00,176.41 248.00,176.89 C248.00,177.36 246.67,178.02 245.05,178.34 C240.39,179.27 238.49,183.17 238.54,191.71 C238.56,195.72 238.56,198.95 238.54,198.89 C238.52,198.83 231.98,195.24 224.00,190.90 Z" fill="rgba(252,172,114,1)"/>
</g>
</svg>